<svg xmlns="http://www.w3.org/2000/svg" xmlns:xlink="http://www.w3.org/1999/xlink" width="417" zoomAndPan="magnify" viewBox="0 0 312.75 312.749995" height="417" preserveAspectRatio="xMidYMid meet" version="1.0"><defs><clipPath id="5441bf08b7"><path d="M 0 0 L 312.5 0 L 312.5 312.5 L 0 312.5 Z M 0 0 " clip-rule="nonzero"/></clipPath><clipPath id="880061de04"><path d="M 156.25 0 C 69.957031 0 0 69.957031 0 156.25 C 0 242.542969 69.957031 312.5 156.25 312.5 C 242.542969 312.5 312.5 242.542969 312.5 156.25 C 312.5 69.957031 242.542969 0 156.25 0 Z M 156.25 0 " clip-rule="nonzero"/></clipPath><clipPath id="5d324c6e98"><path d="M 201 61.890625 L 250 61.890625 L 250 140 L 201 140 Z M 201 61.890625 " clip-rule="nonzero"/></clipPath><clipPath id="b9d0616c7d"><path d="M 129 61.890625 L 178 61.890625 L 178 140 L 129 140 Z M 129 61.890625 " clip-rule="nonzero"/></clipPath><clipPath id="8f2180e12c"><path d="M 57.546875 61.890625 L 106 61.890625 L 106 140 L 57.546875 140 Z M 57.546875 61.890625 " clip-rule="nonzero"/></clipPath></defs><g clip-path="url(#5441bf08b7)"><g clip-path="url(#880061de04)"><path fill="#1925aa" d="M 0 0 L 312.5 0 L 312.5 312.5 L 0 312.5 Z M 0 0 " fill-opacity="1" fill-rule="nonzero"/></g></g><path fill="#fbfbfd" d="M 111.785156 211.660156 C 111.785156 212.53125 111.8125 213.398438 111.867188 214.265625 C 111.917969 215.132812 112 216 112.105469 216.859375 C 112.214844 217.722656 112.347656 218.582031 112.507812 219.4375 C 112.671875 220.289062 112.859375 221.140625 113.070312 221.980469 C 113.285156 222.824219 113.523438 223.660156 113.789062 224.488281 C 114.054688 225.316406 114.347656 226.132812 114.664062 226.945312 C 114.980469 227.753906 115.320312 228.550781 115.6875 229.339844 C 116.054688 230.128906 116.441406 230.90625 116.859375 231.667969 C 117.273438 232.433594 117.710938 233.183594 118.171875 233.921875 C 118.632812 234.660156 119.117188 235.378906 119.621094 236.085938 C 120.128906 236.792969 120.65625 237.484375 121.203125 238.160156 C 121.753906 238.832031 122.320312 239.488281 122.910156 240.128906 C 123.5 240.765625 124.109375 241.386719 124.738281 241.988281 C 125.367188 242.585938 126.011719 243.167969 126.675781 243.730469 C 127.34375 244.289062 128.023438 244.828125 128.722656 245.347656 C 129.417969 245.867188 130.132812 246.363281 130.859375 246.835938 C 131.589844 247.308594 132.332031 247.761719 133.089844 248.1875 C 133.847656 248.617188 134.617188 249.019531 135.398438 249.398438 C 136.179688 249.777344 136.972656 250.132812 137.777344 250.464844 C 138.582031 250.796875 139.394531 251.101562 140.21875 251.378906 C 141.039062 251.660156 141.871094 251.914062 142.710938 252.144531 C 143.546875 252.371094 144.394531 252.574219 145.246094 252.75 C 146.097656 252.925781 146.953125 253.074219 147.8125 253.195312 C 148.671875 253.320312 149.539062 253.414062 150.402344 253.484375 C 151.269531 253.550781 152.136719 253.59375 153.007812 253.609375 C 153.875 253.621094 154.746094 253.609375 155.613281 253.570312 C 156.480469 253.53125 157.347656 253.464844 158.214844 253.371094 C 159.078125 253.28125 159.9375 253.160156 160.792969 253.011719 C 161.652344 252.867188 162.503906 252.695312 163.347656 252.492188 C 164.195312 252.292969 165.035156 252.070312 165.867188 251.816406 C 166.699219 251.566406 167.523438 251.289062 168.335938 250.984375 C 169.152344 250.683594 169.957031 250.355469 170.75 250 C 171.113281 249.839844 171.433594 249.617188 171.707031 249.328125 C 171.980469 249.039062 172.191406 248.710938 172.332031 248.339844 C 172.476562 247.96875 172.542969 247.585938 172.535156 247.1875 C 172.523438 246.792969 172.4375 246.410156 172.277344 246.046875 C 172.117188 245.683594 171.894531 245.363281 171.605469 245.089844 C 171.316406 244.816406 170.988281 244.609375 170.617188 244.464844 C 170.246094 244.320312 169.863281 244.253906 169.464844 244.265625 C 169.066406 244.273438 168.6875 244.359375 168.324219 244.519531 C 167.675781 244.808594 167.019531 245.074219 166.355469 245.324219 C 165.691406 245.574219 165.019531 245.800781 164.339844 246.011719 C 163.664062 246.21875 162.980469 246.410156 162.292969 246.578125 C 161.601562 246.746094 160.910156 246.894531 160.210938 247.023438 C 159.511719 247.148438 158.8125 247.257812 158.109375 247.34375 C 157.402344 247.429688 156.699219 247.496094 155.988281 247.539062 C 155.28125 247.582031 154.574219 247.605469 153.863281 247.609375 C 153.15625 247.609375 152.445312 247.59375 151.738281 247.554688 C 151.027344 247.511719 150.324219 247.453125 149.617188 247.371094 C 148.914062 247.289062 148.210938 247.1875 147.511719 247.066406 C 146.8125 246.941406 146.121094 246.796875 145.429688 246.632812 C 144.738281 246.46875 144.054688 246.285156 143.375 246.082031 C 142.695312 245.875 142.023438 245.652344 141.359375 245.40625 C 140.691406 245.164062 140.035156 244.898438 139.382812 244.617188 C 138.734375 244.332031 138.09375 244.03125 137.460938 243.707031 C 136.828125 243.386719 136.203125 243.046875 135.59375 242.6875 C 134.980469 242.332031 134.378906 241.953125 133.789062 241.5625 C 133.199219 241.167969 132.621094 240.753906 132.054688 240.328125 C 131.488281 239.898438 130.9375 239.457031 130.398438 238.996094 C 129.859375 238.535156 129.332031 238.058594 128.824219 237.566406 C 128.3125 237.074219 127.816406 236.566406 127.332031 236.046875 C 126.851562 235.523438 126.386719 234.988281 125.9375 234.441406 C 125.488281 233.890625 125.054688 233.332031 124.640625 232.757812 C 124.222656 232.183594 123.824219 231.59375 123.441406 230.996094 C 123.0625 230.398438 122.699219 229.789062 122.351562 229.171875 C 122.007812 228.550781 121.679688 227.921875 121.371094 227.285156 C 121.0625 226.644531 120.773438 225.996094 120.503906 225.339844 C 120.234375 224.683594 119.984375 224.023438 119.753906 223.351562 C 119.523438 222.679688 119.3125 222.003906 119.121094 221.320312 C 118.929688 220.636719 118.761719 219.949219 118.609375 219.253906 C 118.460938 218.5625 118.332031 217.863281 118.222656 217.164062 C 118.113281 216.460938 118.027344 215.757812 117.960938 215.050781 C 117.894531 214.347656 117.847656 213.636719 117.824219 212.929688 C 117.796875 212.21875 117.792969 211.511719 117.8125 210.800781 C 117.828125 210.09375 117.867188 209.386719 117.925781 208.679688 C 117.984375 207.972656 118.0625 207.265625 118.164062 206.5625 C 118.265625 205.863281 118.386719 205.164062 118.527344 204.46875 C 118.667969 203.773438 118.832031 203.082031 119.015625 202.398438 C 119.199219 201.710938 119.402344 201.03125 119.625 200.359375 C 119.847656 199.6875 120.089844 199.019531 120.351562 198.359375 C 120.613281 197.703125 120.898438 197.050781 121.199219 196.410156 C 121.5 195.765625 121.820312 195.132812 122.15625 194.511719 C 122.496094 193.886719 122.851562 193.273438 123.226562 192.671875 C 123.601562 192.070312 123.996094 191.480469 124.40625 190.898438 C 124.8125 190.320312 125.242188 189.753906 125.683594 189.199219 C 126.128906 188.648438 126.585938 188.105469 127.0625 187.582031 C 127.539062 187.054688 128.027344 186.542969 128.535156 186.042969 C 129.039062 185.546875 129.558594 185.0625 130.09375 184.597656 C 130.628906 184.128906 131.175781 183.679688 131.734375 183.246094 C 132.296875 182.8125 132.871094 182.394531 133.457031 181.992188 C 134.039062 181.59375 134.636719 181.210938 135.246094 180.84375 C 135.855469 180.480469 136.472656 180.132812 137.101562 179.804688 C 137.730469 179.476562 138.367188 179.167969 139.015625 178.875 C 139.664062 178.585938 140.316406 178.3125 140.980469 178.0625 C 141.644531 177.808594 142.3125 177.578125 142.992188 177.367188 C 143.667969 177.152344 144.351562 176.960938 145.039062 176.789062 C 145.726562 176.617188 146.417969 176.464844 147.117188 176.335938 C 147.8125 176.203125 148.515625 176.09375 149.21875 176.003906 C 149.921875 175.917969 150.628906 175.847656 151.335938 175.800781 C 152.042969 175.753906 152.75 175.726562 153.460938 175.71875 C 154.171875 175.714844 154.878906 175.730469 155.585938 175.765625 C 156.296875 175.804688 157.003906 175.859375 157.707031 175.9375 C 158.414062 176.015625 159.113281 176.117188 159.8125 176.234375 C 160.511719 176.355469 161.207031 176.496094 161.898438 176.65625 C 162.589844 176.816406 163.277344 177 163.957031 177.199219 C 164.636719 177.402344 165.308594 177.625 165.976562 177.863281 C 166.644531 178.105469 167.304688 178.367188 167.953125 178.648438 C 168.605469 178.929688 169.25 179.226562 169.882812 179.546875 C 170.515625 179.863281 171.140625 180.199219 171.753906 180.554688 C 172.367188 180.910156 172.972656 181.285156 173.5625 181.675781 C 174.15625 182.066406 174.734375 182.476562 175.300781 182.902344 C 175.871094 183.328125 176.425781 183.769531 176.964844 184.226562 C 177.507812 184.683594 178.035156 185.160156 178.546875 185.648438 C 179.0625 186.136719 179.558594 186.640625 180.042969 187.160156 C 180.527344 187.679688 180.996094 188.214844 181.449219 188.761719 C 181.898438 189.304688 182.335938 189.867188 182.753906 190.4375 C 183.171875 191.011719 183.574219 191.59375 183.957031 192.191406 C 184.34375 192.789062 184.710938 193.394531 185.058594 194.011719 C 185.40625 194.632812 185.734375 195.257812 186.046875 195.894531 C 186.359375 196.535156 186.648438 197.179688 186.921875 197.835938 C 187.195312 198.488281 187.449219 199.152344 187.683594 199.820312 C 187.917969 200.492188 188.128906 201.167969 188.324219 201.851562 C 188.519531 202.53125 188.691406 203.21875 188.84375 203.914062 C 188.996094 204.605469 189.128906 205.300781 189.242188 206.003906 C 189.351562 206.703125 189.445312 207.40625 189.515625 208.113281 C 189.582031 208.816406 189.632812 209.523438 189.660156 210.234375 C 189.691406 210.941406 189.695312 211.652344 189.683594 212.359375 C 189.667969 213.070312 189.632812 213.777344 189.578125 214.484375 C 189.523438 215.191406 189.445312 215.898438 189.347656 216.601562 C 189.25 217.304688 189.132812 218.003906 188.996094 218.699219 C 188.855469 219.394531 188.695312 220.085938 188.515625 220.769531 C 188.335938 221.457031 188.136719 222.136719 187.917969 222.8125 C 187.699219 223.488281 187.457031 224.152344 187.199219 224.8125 C 186.9375 225.472656 186.660156 226.125 186.363281 226.769531 C 186.0625 227.414062 185.746094 228.046875 185.410156 228.671875 C 185.074219 229.296875 184.722656 229.910156 184.347656 230.515625 C 184.160156 230.851562 184.042969 231.210938 183.992188 231.59375 C 183.945312 231.976562 183.96875 232.355469 184.0625 232.730469 C 184.160156 233.105469 184.324219 233.445312 184.554688 233.757812 C 184.78125 234.066406 185.0625 234.324219 185.390625 234.527344 C 185.71875 234.730469 186.074219 234.863281 186.453125 234.929688 C 186.832031 234.996094 187.210938 234.988281 187.589844 234.90625 C 187.96875 234.828125 188.316406 234.679688 188.636719 234.464844 C 188.957031 234.246094 189.226562 233.980469 189.441406 233.660156 C 189.910156 232.898438 190.355469 232.121094 190.777344 231.328125 C 191.195312 230.535156 191.589844 229.730469 191.960938 228.914062 C 192.328125 228.097656 192.671875 227.269531 192.984375 226.429688 C 193.300781 225.589844 193.589844 224.742188 193.851562 223.886719 C 194.113281 223.027344 194.34375 222.164062 194.550781 221.289062 C 194.757812 220.417969 194.933594 219.539062 195.082031 218.65625 C 195.230469 217.769531 195.351562 216.882812 195.445312 215.992188 C 195.539062 215.101562 195.601562 214.207031 195.636719 213.308594 C 195.671875 212.414062 195.675781 211.519531 195.65625 210.621094 C 195.632812 209.726562 195.582031 208.832031 195.5 207.9375 C 195.421875 207.046875 195.3125 206.15625 195.175781 205.269531 C 195.039062 204.382812 194.875 203.503906 194.679688 202.628906 C 194.488281 201.753906 194.265625 200.886719 194.015625 200.023438 C 193.769531 199.164062 193.492188 198.308594 193.1875 197.46875 C 192.886719 196.625 192.554688 195.789062 192.199219 194.96875 C 191.839844 194.144531 191.457031 193.335938 191.046875 192.539062 C 190.640625 191.742188 190.203125 190.957031 189.746094 190.1875 C 189.285156 189.417969 188.800781 188.664062 188.296875 187.925781 C 187.789062 187.183594 187.257812 186.464844 186.703125 185.757812 C 186.148438 185.054688 185.574219 184.367188 184.972656 183.699219 C 184.375 183.03125 183.757812 182.382812 183.117188 181.753906 C 182.480469 181.128906 181.820312 180.519531 181.140625 179.933594 C 180.460938 179.347656 179.765625 178.785156 179.050781 178.242188 C 178.335938 177.703125 177.605469 177.183594 176.859375 176.691406 C 176.109375 176.195312 175.347656 175.726562 174.570312 175.28125 C 173.792969 174.835938 173 174.414062 172.195312 174.019531 C 171.390625 173.625 170.574219 173.257812 169.746094 172.914062 C 168.917969 172.574219 168.078125 172.257812 167.230469 171.96875 C 166.378906 171.679688 165.523438 171.417969 164.65625 171.1875 C 163.792969 170.953125 162.917969 170.746094 162.039062 170.570312 C 161.164062 170.390625 160.277344 170.242188 159.390625 170.121094 C 158.503906 170 157.609375 169.90625 156.71875 169.84375 L 156.71875 160.035156 L 157.105469 160.722656 C 157.304688 161.070312 157.5625 161.363281 157.875 161.605469 C 158.191406 161.847656 158.542969 162.019531 158.925781 162.125 C 159.3125 162.226562 159.699219 162.253906 160.09375 162.203125 C 160.488281 162.152344 160.859375 162.027344 161.203125 161.828125 C 161.550781 161.628906 161.84375 161.371094 162.085938 161.054688 C 162.328125 160.738281 162.5 160.390625 162.601562 160.003906 C 162.707031 159.621094 162.730469 159.230469 162.679688 158.835938 C 162.628906 158.441406 162.503906 158.074219 162.304688 157.726562 L 156.3125 147.242188 C 156.046875 146.777344 155.679688 146.410156 155.214844 146.140625 C 154.75 145.875 154.25 145.738281 153.714844 145.738281 C 153.175781 145.738281 152.675781 145.875 152.210938 146.140625 C 151.75 146.410156 151.382812 146.777344 151.117188 147.242188 L 145.125 157.726562 C 144.925781 158.074219 144.800781 158.441406 144.75 158.835938 C 144.699219 159.230469 144.722656 159.621094 144.828125 160.003906 C 144.929688 160.386719 145.101562 160.738281 145.34375 161.054688 C 145.585938 161.367188 145.882812 161.625 146.226562 161.824219 C 146.570312 162.023438 146.941406 162.148438 147.332031 162.199219 C 147.726562 162.25 148.117188 162.226562 148.5 162.121094 C 148.886719 162.019531 149.234375 161.847656 149.550781 161.605469 C 149.867188 161.363281 150.125 161.066406 150.320312 160.722656 L 150.710938 160.035156 L 150.710938 169.84375 C 149.402344 169.9375 148.105469 170.09375 146.8125 170.308594 C 145.519531 170.523438 144.242188 170.800781 142.972656 171.136719 C 141.707031 171.472656 140.460938 171.867188 139.230469 172.320312 C 138 172.773438 136.792969 173.28125 135.613281 173.847656 C 134.429688 174.414062 133.277344 175.035156 132.15625 175.707031 C 131.03125 176.382812 129.941406 177.105469 128.886719 177.882812 C 127.828125 178.65625 126.8125 179.480469 125.832031 180.351562 C 124.855469 181.222656 123.917969 182.140625 123.027344 183.097656 C 122.132812 184.058594 121.289062 185.054688 120.488281 186.09375 C 119.691406 187.132812 118.941406 188.207031 118.242188 189.316406 C 117.542969 190.421875 116.898438 191.5625 116.308594 192.730469 C 115.714844 193.902344 115.179688 195.09375 114.699219 196.3125 C 114.21875 197.535156 113.796875 198.773438 113.433594 200.03125 C 113.070312 201.289062 112.765625 202.5625 112.523438 203.851562 C 112.277344 205.136719 112.09375 206.433594 111.972656 207.738281 C 111.847656 209.042969 111.785156 210.351562 111.785156 211.660156 Z M 111.785156 211.660156 " fill-opacity="1" fill-rule="nonzero"/><path fill="#fbfbfd" d="M 171.695312 228.132812 L 135.75 228.132812 C 135.351562 228.132812 134.96875 228.210938 134.601562 228.363281 C 134.234375 228.515625 133.910156 228.730469 133.632812 229.011719 C 133.351562 229.292969 133.132812 229.617188 132.980469 229.984375 C 132.828125 230.351562 132.753906 230.734375 132.753906 231.128906 C 132.753906 231.527344 132.828125 231.910156 132.980469 232.277344 C 133.132812 232.644531 133.351562 232.96875 133.632812 233.25 C 133.910156 233.527344 134.234375 233.746094 134.601562 233.898438 C 134.96875 234.050781 135.351562 234.125 135.75 234.125 L 171.695312 234.125 C 172.089844 234.125 172.472656 234.050781 172.839844 233.898438 C 173.207031 233.746094 173.53125 233.527344 173.8125 233.25 C 174.09375 232.96875 174.308594 232.644531 174.460938 232.277344 C 174.613281 231.910156 174.6875 231.527344 174.6875 231.128906 C 174.6875 230.734375 174.613281 230.351562 174.460938 229.984375 C 174.308594 229.617188 174.09375 229.292969 173.8125 229.011719 C 173.53125 228.730469 173.207031 228.515625 172.839844 228.363281 C 172.472656 228.210938 172.089844 228.132812 171.695312 228.132812 Z M 171.695312 228.132812 " fill-opacity="1" fill-rule="nonzero"/><path fill="#fbfbfd" d="M 171.695312 216.152344 L 135.75 216.152344 C 135.351562 216.152344 134.96875 216.230469 134.601562 216.382812 C 134.234375 216.53125 133.910156 216.75 133.632812 217.03125 C 133.351562 217.3125 133.132812 217.636719 132.980469 218.003906 C 132.828125 218.371094 132.753906 218.75 132.753906 219.148438 C 132.753906 219.546875 132.828125 219.929688 132.980469 220.292969 C 133.132812 220.660156 133.351562 220.984375 133.632812 221.265625 C 133.910156 221.546875 134.234375 221.765625 134.601562 221.914062 C 134.96875 222.066406 135.351562 222.144531 135.75 222.144531 L 171.695312 222.144531 C 172.089844 222.144531 172.472656 222.066406 172.839844 221.914062 C 173.207031 221.765625 173.53125 221.546875 173.8125 221.265625 C 174.09375 220.984375 174.308594 220.660156 174.460938 220.292969 C 174.613281 219.929688 174.6875 219.546875 174.6875 219.148438 C 174.6875 218.75 174.613281 218.371094 174.460938 218.003906 C 174.308594 217.636719 174.09375 217.3125 173.8125 217.03125 C 173.53125 216.75 173.207031 216.53125 172.839844 216.382812 C 172.472656 216.230469 172.089844 216.152344 171.695312 216.152344 Z M 171.695312 216.152344 " fill-opacity="1" fill-rule="nonzero"/><path fill="#fbfbfd" d="M 171.695312 204.171875 L 135.75 204.171875 C 135.351562 204.171875 134.96875 204.246094 134.601562 204.398438 C 134.234375 204.550781 133.910156 204.769531 133.632812 205.050781 C 133.351562 205.328125 133.132812 205.652344 132.980469 206.019531 C 132.828125 206.386719 132.753906 206.769531 132.753906 207.167969 C 132.753906 207.5625 132.828125 207.945312 132.980469 208.3125 C 133.132812 208.679688 133.351562 209.003906 133.632812 209.285156 C 133.910156 209.566406 134.234375 209.78125 134.601562 209.933594 C 134.96875 210.085938 135.351562 210.164062 135.75 210.164062 L 171.695312 210.164062 C 172.089844 210.164062 172.472656 210.085938 172.839844 209.933594 C 173.207031 209.78125 173.53125 209.566406 173.8125 209.285156 C 174.09375 209.003906 174.308594 208.679688 174.460938 208.3125 C 174.613281 207.945312 174.6875 207.5625 174.6875 207.167969 C 174.6875 206.769531 174.613281 206.386719 174.460938 206.019531 C 174.308594 205.652344 174.09375 205.328125 173.8125 205.050781 C 173.53125 204.769531 173.207031 204.550781 172.839844 204.398438 C 172.472656 204.246094 172.089844 204.171875 171.695312 204.171875 Z M 171.695312 204.171875 " fill-opacity="1" fill-rule="nonzero"/><path fill="#fbfbfd" d="M 171.695312 192.191406 L 135.75 192.191406 C 135.351562 192.191406 134.96875 192.265625 134.601562 192.417969 C 134.234375 192.570312 133.910156 192.785156 133.632812 193.066406 C 133.351562 193.347656 133.132812 193.671875 132.980469 194.039062 C 132.828125 194.40625 132.753906 194.789062 132.753906 195.183594 C 132.753906 195.582031 132.828125 195.964844 132.980469 196.332031 C 133.132812 196.699219 133.351562 197.023438 133.632812 197.304688 C 133.910156 197.585938 134.234375 197.800781 134.601562 197.953125 C 134.96875 198.105469 135.351562 198.179688 135.75 198.179688 L 171.695312 198.179688 C 172.089844 198.179688 172.472656 198.105469 172.839844 197.953125 C 173.207031 197.800781 173.53125 197.585938 173.8125 197.304688 C 174.09375 197.023438 174.308594 196.699219 174.460938 196.332031 C 174.613281 195.964844 174.6875 195.582031 174.6875 195.183594 C 174.6875 194.789062 174.613281 194.40625 174.460938 194.039062 C 174.308594 193.671875 174.09375 193.347656 173.8125 193.066406 C 173.53125 192.785156 173.207031 192.570312 172.839844 192.417969 C 172.472656 192.265625 172.089844 192.191406 171.695312 192.191406 Z M 171.695312 192.191406 " fill-opacity="1" fill-rule="nonzero"/><g clip-path="url(#5d324c6e98)"><path fill="#fbfbfd" d="M 240.589844 61.890625 L 210.632812 61.890625 C 210.042969 61.890625 209.460938 61.949219 208.882812 62.0625 C 208.300781 62.179688 207.742188 62.347656 207.195312 62.574219 C 206.648438 62.800781 206.132812 63.078125 205.640625 63.40625 C 205.152344 63.734375 204.695312 64.105469 204.28125 64.523438 C 203.863281 64.941406 203.488281 65.394531 203.164062 65.882812 C 202.835938 66.375 202.558594 66.890625 202.332031 67.4375 C 202.105469 67.984375 201.9375 68.542969 201.820312 69.125 C 201.707031 69.703125 201.648438 70.285156 201.648438 70.875 L 201.648438 130.785156 C 201.648438 131.375 201.707031 131.957031 201.820312 132.539062 C 201.9375 133.117188 202.105469 133.679688 202.332031 134.222656 C 202.558594 134.769531 202.835938 135.285156 203.164062 135.777344 C 203.488281 136.265625 203.863281 136.722656 204.28125 137.136719 C 204.695312 137.554688 205.152344 137.929688 205.640625 138.257812 C 206.132812 138.582031 206.648438 138.859375 207.195312 139.085938 C 207.742188 139.3125 208.300781 139.484375 208.882812 139.597656 C 209.460938 139.714844 210.042969 139.769531 210.632812 139.769531 L 240.589844 139.769531 C 241.179688 139.769531 241.761719 139.714844 242.339844 139.597656 C 242.917969 139.484375 243.480469 139.3125 244.027344 139.085938 C 244.570312 138.859375 245.089844 138.582031 245.582031 138.257812 C 246.070312 137.929688 246.523438 137.554688 246.941406 137.136719 C 247.359375 136.722656 247.730469 136.265625 248.058594 135.777344 C 248.386719 135.285156 248.664062 134.769531 248.890625 134.222656 C 249.117188 133.679688 249.285156 133.117188 249.402344 132.539062 C 249.515625 131.957031 249.574219 131.375 249.574219 130.785156 L 249.574219 70.875 C 249.574219 70.285156 249.515625 69.703125 249.402344 69.125 C 249.285156 68.542969 249.117188 67.984375 248.890625 67.4375 C 248.664062 66.890625 248.386719 66.375 248.058594 65.882812 C 247.730469 65.394531 247.359375 64.941406 246.941406 64.523438 C 246.523438 64.105469 246.070312 63.734375 245.582031 63.40625 C 245.089844 63.078125 244.570312 62.800781 244.027344 62.574219 C 243.480469 62.347656 242.917969 62.179688 242.339844 62.0625 C 241.761719 61.949219 241.179688 61.890625 240.589844 61.890625 Z M 225.609375 70.875 C 226.007812 70.875 226.390625 70.953125 226.757812 71.105469 C 227.125 71.257812 227.449219 71.472656 227.730469 71.753906 C 228.011719 72.035156 228.226562 72.359375 228.378906 72.726562 C 228.53125 73.09375 228.605469 73.476562 228.605469 73.871094 C 228.605469 74.269531 228.53125 74.652344 228.378906 75.019531 C 228.226562 75.386719 228.011719 75.710938 227.730469 75.988281 C 227.449219 76.269531 227.125 76.488281 226.757812 76.640625 C 226.390625 76.792969 226.007812 76.867188 225.609375 76.867188 C 225.214844 76.867188 224.832031 76.792969 224.464844 76.640625 C 224.097656 76.488281 223.773438 76.269531 223.492188 75.988281 C 223.210938 75.710938 222.996094 75.386719 222.84375 75.019531 C 222.691406 74.652344 222.617188 74.269531 222.617188 73.871094 C 222.617188 73.476562 222.691406 73.09375 222.84375 72.726562 C 222.996094 72.359375 223.210938 72.035156 223.492188 71.753906 C 223.773438 71.472656 224.097656 71.257812 224.464844 71.105469 C 224.832031 70.953125 225.214844 70.875 225.609375 70.875 Z M 228.605469 130.785156 L 222.617188 130.785156 C 222.21875 130.785156 221.835938 130.707031 221.46875 130.554688 C 221.101562 130.40625 220.777344 130.1875 220.496094 129.90625 C 220.214844 129.625 220 129.300781 219.847656 128.933594 C 219.695312 128.566406 219.621094 128.1875 219.621094 127.789062 C 219.621094 127.390625 219.695312 127.007812 219.847656 126.644531 C 220 126.277344 220.214844 125.953125 220.496094 125.671875 C 220.777344 125.390625 221.101562 125.171875 221.46875 125.023438 C 221.835938 124.871094 222.21875 124.792969 222.617188 124.792969 L 228.605469 124.792969 C 229.003906 124.792969 229.386719 124.871094 229.753906 125.023438 C 230.121094 125.171875 230.445312 125.390625 230.722656 125.671875 C 231.003906 125.953125 231.222656 126.277344 231.375 126.644531 C 231.527344 127.007812 231.601562 127.390625 231.601562 127.789062 C 231.601562 128.1875 231.527344 128.566406 231.375 128.933594 C 231.222656 129.300781 231.003906 129.625 230.722656 129.90625 C 230.445312 130.1875 230.121094 130.40625 229.753906 130.554688 C 229.386719 130.707031 229.003906 130.785156 228.605469 130.785156 Z M 228.605469 130.785156 " fill-opacity="1" fill-rule="nonzero"/></g><g clip-path="url(#b9d0616c7d)"><path fill="#fbfbfd" d="M 168.699219 61.890625 L 138.746094 61.890625 C 138.15625 61.890625 137.570312 61.949219 136.992188 62.0625 C 136.414062 62.179688 135.851562 62.347656 135.304688 62.574219 C 134.761719 62.800781 134.242188 63.078125 133.753906 63.40625 C 133.261719 63.734375 132.808594 64.105469 132.390625 64.523438 C 131.972656 64.941406 131.601562 65.394531 131.273438 65.882812 C 130.945312 66.375 130.667969 66.890625 130.441406 67.4375 C 130.214844 67.984375 130.046875 68.542969 129.929688 69.125 C 129.816406 69.703125 129.757812 70.285156 129.757812 70.875 L 129.757812 130.785156 C 129.757812 131.375 129.816406 131.957031 129.929688 132.539062 C 130.046875 133.117188 130.214844 133.679688 130.441406 134.222656 C 130.667969 134.769531 130.945312 135.285156 131.273438 135.777344 C 131.601562 136.265625 131.972656 136.722656 132.390625 137.136719 C 132.808594 137.554688 133.261719 137.929688 133.753906 138.257812 C 134.242188 138.582031 134.761719 138.859375 135.304688 139.085938 C 135.851562 139.3125 136.414062 139.484375 136.992188 139.597656 C 137.570312 139.714844 138.15625 139.769531 138.746094 139.769531 L 168.699219 139.769531 C 169.289062 139.769531 169.871094 139.714844 170.453125 139.597656 C 171.03125 139.484375 171.59375 139.3125 172.136719 139.085938 C 172.683594 138.859375 173.199219 138.582031 173.691406 138.257812 C 174.179688 137.929688 174.636719 137.554688 175.050781 137.136719 C 175.46875 136.722656 175.84375 136.265625 176.171875 135.777344 C 176.496094 135.285156 176.773438 134.769531 177 134.222656 C 177.226562 133.679688 177.398438 133.117188 177.511719 132.539062 C 177.628906 131.957031 177.683594 131.375 177.683594 130.785156 L 177.683594 70.875 C 177.683594 70.285156 177.628906 69.703125 177.511719 69.125 C 177.398438 68.542969 177.226562 67.984375 177 67.4375 C 176.773438 66.890625 176.496094 66.375 176.171875 65.882812 C 175.84375 65.394531 175.46875 64.941406 175.050781 64.523438 C 174.636719 64.105469 174.179688 63.734375 173.691406 63.40625 C 173.199219 63.078125 172.683594 62.800781 172.136719 62.574219 C 171.59375 62.347656 171.03125 62.179688 170.453125 62.0625 C 169.871094 61.949219 169.289062 61.890625 168.699219 61.890625 Z M 153.722656 70.875 C 154.117188 70.875 154.5 70.953125 154.867188 71.105469 C 155.234375 71.257812 155.558594 71.472656 155.839844 71.753906 C 156.121094 72.035156 156.335938 72.359375 156.488281 72.726562 C 156.640625 73.09375 156.71875 73.476562 156.71875 73.871094 C 156.71875 74.269531 156.640625 74.652344 156.488281 75.019531 C 156.335938 75.386719 156.121094 75.710938 155.839844 75.988281 C 155.558594 76.269531 155.234375 76.488281 154.867188 76.640625 C 154.5 76.792969 154.117188 76.867188 153.722656 76.867188 C 153.324219 76.867188 152.941406 76.792969 152.574219 76.640625 C 152.207031 76.488281 151.882812 76.269531 151.601562 75.988281 C 151.324219 75.710938 151.105469 75.386719 150.953125 75.019531 C 150.800781 74.652344 150.726562 74.269531 150.726562 73.871094 C 150.726562 73.476562 150.800781 73.09375 150.953125 72.726562 C 151.105469 72.359375 151.324219 72.035156 151.601562 71.753906 C 151.882812 71.472656 152.207031 71.257812 152.574219 71.105469 C 152.941406 70.953125 153.324219 70.875 153.722656 70.875 Z M 156.71875 130.785156 L 150.726562 130.785156 C 150.328125 130.785156 149.945312 130.707031 149.578125 130.554688 C 149.210938 130.40625 148.890625 130.1875 148.609375 129.90625 C 148.328125 129.625 148.109375 129.300781 147.957031 128.933594 C 147.808594 128.566406 147.730469 128.1875 147.730469 127.789062 C 147.730469 127.390625 147.808594 127.007812 147.957031 126.644531 C 148.109375 126.277344 148.328125 125.953125 148.609375 125.671875 C 148.890625 125.390625 149.210938 125.171875 149.578125 125.023438 C 149.945312 124.871094 150.328125 124.792969 150.726562 124.792969 L 156.71875 124.792969 C 157.113281 124.792969 157.496094 124.871094 157.863281 125.023438 C 158.230469 125.171875 158.554688 125.390625 158.835938 125.671875 C 159.117188 125.953125 159.332031 126.277344 159.484375 126.644531 C 159.636719 127.007812 159.710938 127.390625 159.710938 127.789062 C 159.710938 128.1875 159.636719 128.566406 159.484375 128.933594 C 159.332031 129.300781 159.117188 129.625 158.835938 129.90625 C 158.554688 130.1875 158.230469 130.40625 157.863281 130.554688 C 157.496094 130.707031 157.113281 130.785156 156.71875 130.785156 Z M 156.71875 130.785156 " fill-opacity="1" fill-rule="nonzero"/></g><g clip-path="url(#8f2180e12c)"><path fill="#fbfbfd" d="M 96.808594 61.890625 L 66.855469 61.890625 C 66.265625 61.890625 65.679688 61.949219 65.101562 62.0625 C 64.523438 62.179688 63.960938 62.347656 63.417969 62.574219 C 62.871094 62.800781 62.351562 63.078125 61.863281 63.40625 C 61.371094 63.734375 60.917969 64.105469 60.5 64.523438 C 60.082031 64.941406 59.710938 65.394531 59.382812 65.882812 C 59.054688 66.375 58.777344 66.890625 58.554688 67.4375 C 58.328125 67.984375 58.15625 68.542969 58.042969 69.125 C 57.925781 69.703125 57.867188 70.285156 57.867188 70.875 L 57.867188 130.785156 C 57.867188 131.375 57.925781 131.957031 58.042969 132.539062 C 58.15625 133.117188 58.328125 133.679688 58.554688 134.222656 C 58.777344 134.769531 59.054688 135.285156 59.382812 135.777344 C 59.710938 136.265625 60.082031 136.722656 60.5 137.136719 C 60.917969 137.554688 61.371094 137.929688 61.863281 138.257812 C 62.351562 138.582031 62.871094 138.859375 63.417969 139.085938 C 63.960938 139.3125 64.523438 139.484375 65.101562 139.597656 C 65.679688 139.714844 66.265625 139.769531 66.855469 139.769531 L 96.808594 139.769531 C 97.398438 139.769531 97.984375 139.714844 98.5625 139.597656 C 99.140625 139.484375 99.703125 139.3125 100.246094 139.085938 C 100.792969 138.859375 101.3125 138.582031 101.800781 138.257812 C 102.292969 137.929688 102.746094 137.554688 103.164062 137.136719 C 103.582031 136.722656 103.953125 136.265625 104.28125 135.777344 C 104.609375 135.285156 104.886719 134.769531 105.109375 134.222656 C 105.335938 133.679688 105.507812 133.117188 105.621094 132.539062 C 105.738281 131.957031 105.796875 131.375 105.796875 130.785156 L 105.796875 70.875 C 105.796875 70.285156 105.738281 69.703125 105.621094 69.125 C 105.507812 68.542969 105.335938 67.984375 105.109375 67.4375 C 104.886719 66.890625 104.609375 66.375 104.28125 65.882812 C 103.953125 65.394531 103.582031 64.941406 103.164062 64.523438 C 102.746094 64.105469 102.292969 63.734375 101.800781 63.40625 C 101.3125 63.078125 100.792969 62.800781 100.246094 62.574219 C 99.703125 62.347656 99.140625 62.179688 98.5625 62.0625 C 97.984375 61.949219 97.398438 61.890625 96.808594 61.890625 Z M 81.832031 70.875 C 82.230469 70.875 82.609375 70.953125 82.976562 71.105469 C 83.34375 71.257812 83.667969 71.472656 83.949219 71.753906 C 84.230469 72.035156 84.449219 72.359375 84.597656 72.726562 C 84.75 73.09375 84.828125 73.476562 84.828125 73.871094 C 84.828125 74.269531 84.75 74.652344 84.597656 75.019531 C 84.449219 75.386719 84.230469 75.710938 83.949219 75.988281 C 83.667969 76.269531 83.34375 76.488281 82.976562 76.640625 C 82.609375 76.792969 82.230469 76.867188 81.832031 76.867188 C 81.433594 76.867188 81.050781 76.792969 80.6875 76.640625 C 80.320312 76.488281 79.996094 76.269531 79.714844 75.988281 C 79.433594 75.710938 79.214844 75.386719 79.066406 75.019531 C 78.914062 74.652344 78.835938 74.269531 78.835938 73.871094 C 78.835938 73.476562 78.914062 73.09375 79.066406 72.726562 C 79.214844 72.359375 79.433594 72.035156 79.714844 71.753906 C 79.996094 71.472656 80.320312 71.257812 80.6875 71.105469 C 81.050781 70.953125 81.433594 70.875 81.832031 70.875 Z M 84.828125 130.785156 L 78.835938 130.785156 C 78.4375 130.785156 78.058594 130.707031 77.691406 130.554688 C 77.324219 130.40625 77 130.1875 76.71875 129.90625 C 76.4375 129.625 76.222656 129.300781 76.070312 128.933594 C 75.917969 128.566406 75.839844 128.1875 75.839844 127.789062 C 75.839844 127.390625 75.917969 127.007812 76.070312 126.644531 C 76.222656 126.277344 76.4375 125.953125 76.71875 125.671875 C 77 125.390625 77.324219 125.171875 77.691406 125.023438 C 78.058594 124.871094 78.4375 124.792969 78.835938 124.792969 L 84.828125 124.792969 C 85.226562 124.792969 85.605469 124.871094 85.972656 125.023438 C 86.339844 125.171875 86.664062 125.390625 86.945312 125.671875 C 87.226562 125.953125 87.441406 126.277344 87.59375 126.644531 C 87.746094 127.007812 87.824219 127.390625 87.824219 127.789062 C 87.824219 128.1875 87.746094 128.566406 87.59375 128.933594 C 87.441406 129.300781 87.226562 129.625 86.945312 129.90625 C 86.664062 130.1875 86.339844 130.40625 85.972656 130.554688 C 85.605469 130.707031 85.226562 130.785156 84.828125 130.785156 Z M 84.828125 130.785156 " fill-opacity="1" fill-rule="nonzero"/></g><path fill="#fbfbfd" d="M 85.21875 160.738281 C 85.414062 161.082031 85.671875 161.378906 85.988281 161.621094 C 86.304688 161.863281 86.652344 162.035156 87.035156 162.140625 C 87.421875 162.242188 87.8125 162.269531 88.207031 162.214844 C 88.601562 162.164062 88.96875 162.039062 89.3125 161.839844 C 89.660156 161.640625 89.953125 161.386719 90.195312 161.070312 C 90.4375 160.753906 90.609375 160.402344 90.714844 160.019531 C 90.816406 159.636719 90.84375 159.246094 90.789062 158.851562 C 90.738281 158.457031 90.613281 158.085938 90.414062 157.742188 L 84.421875 147.257812 C 84.15625 146.792969 83.789062 146.425781 83.324219 146.15625 C 82.863281 145.886719 82.359375 145.753906 81.824219 145.753906 C 81.289062 145.753906 80.789062 145.886719 80.324219 146.15625 C 79.859375 146.425781 79.492188 146.792969 79.226562 147.257812 L 73.234375 157.742188 C 73.035156 158.085938 72.910156 158.457031 72.859375 158.851562 C 72.808594 159.246094 72.835938 159.636719 72.9375 160.019531 C 73.039062 160.402344 73.214844 160.753906 73.457031 161.066406 C 73.699219 161.382812 73.992188 161.640625 74.335938 161.839844 C 74.679688 162.039062 75.050781 162.164062 75.445312 162.214844 C 75.839844 162.265625 76.226562 162.242188 76.613281 162.136719 C 76.996094 162.035156 77.347656 161.859375 77.660156 161.617188 C 77.976562 161.375 78.234375 161.082031 78.433594 160.738281 L 78.820312 160.050781 L 78.820312 205.667969 C 78.835938 206.273438 78.90625 206.867188 79.039062 207.457031 C 79.167969 208.046875 79.355469 208.617188 79.601562 209.167969 C 79.84375 209.722656 80.136719 210.246094 80.484375 210.738281 C 80.832031 211.234375 81.222656 211.6875 81.65625 212.105469 C 82.09375 212.523438 82.566406 212.894531 83.074219 213.21875 C 83.582031 213.542969 84.117188 213.8125 84.679688 214.03125 C 85.242188 214.25 85.820312 214.414062 86.417969 214.515625 C 87.011719 214.621094 87.609375 214.667969 88.210938 214.65625 L 102.800781 214.65625 C 103.195312 214.65625 103.578125 214.578125 103.945312 214.425781 C 104.3125 214.277344 104.636719 214.058594 104.917969 213.777344 C 105.199219 213.496094 105.414062 213.171875 105.566406 212.804688 C 105.71875 212.4375 105.796875 212.058594 105.796875 211.660156 C 105.796875 211.261719 105.71875 210.878906 105.566406 210.515625 C 105.414062 210.148438 105.199219 209.824219 104.917969 209.542969 C 104.636719 209.261719 104.3125 209.042969 103.945312 208.894531 C 103.578125 208.742188 103.195312 208.664062 102.800781 208.664062 L 88.226562 208.664062 C 87.804688 208.6875 87.390625 208.632812 86.992188 208.496094 C 86.589844 208.355469 86.230469 208.148438 85.910156 207.867188 C 85.59375 207.585938 85.339844 207.253906 85.152344 206.875 C 84.964844 206.496094 84.855469 206.09375 84.828125 205.667969 L 84.828125 160.035156 Z M 85.21875 160.738281 " fill-opacity="1" fill-rule="nonzero"/><path fill="#fbfbfd" d="M 219.214844 208.664062 L 204.644531 208.664062 C 204.246094 208.664062 203.863281 208.742188 203.496094 208.894531 C 203.128906 209.042969 202.804688 209.261719 202.523438 209.542969 C 202.246094 209.824219 202.027344 210.148438 201.875 210.515625 C 201.722656 210.878906 201.648438 211.261719 201.648438 211.660156 C 201.648438 212.058594 201.722656 212.4375 201.875 212.804688 C 202.027344 213.171875 202.246094 213.496094 202.523438 213.777344 C 202.804688 214.058594 203.128906 214.277344 203.496094 214.425781 C 203.863281 214.578125 204.246094 214.65625 204.644531 214.65625 L 219.214844 214.65625 C 219.820312 214.667969 220.417969 214.621094 221.011719 214.515625 C 221.605469 214.414062 222.183594 214.25 222.746094 214.03125 C 223.308594 213.8125 223.84375 213.542969 224.351562 213.21875 C 224.863281 212.894531 225.335938 212.523438 225.769531 212.105469 C 226.207031 211.6875 226.597656 211.234375 226.945312 210.738281 C 227.289062 210.246094 227.585938 209.722656 227.828125 209.167969 C 228.070312 208.617188 228.257812 208.046875 228.390625 207.457031 C 228.519531 206.867188 228.59375 206.273438 228.605469 205.667969 L 228.605469 160.035156 L 228.996094 160.722656 C 229.195312 161.066406 229.453125 161.363281 229.765625 161.605469 C 230.082031 161.847656 230.433594 162.019531 230.816406 162.121094 C 231.199219 162.226562 231.589844 162.25 231.984375 162.199219 C 232.378906 162.148438 232.746094 162.023438 233.09375 161.824219 C 233.4375 161.625 233.730469 161.367188 233.972656 161.054688 C 234.214844 160.738281 234.386719 160.386719 234.492188 160.003906 C 234.59375 159.621094 234.621094 159.230469 234.566406 158.835938 C 234.515625 158.441406 234.390625 158.074219 234.191406 157.726562 L 228.203125 147.242188 C 227.933594 146.777344 227.570312 146.410156 227.105469 146.140625 C 226.640625 145.875 226.140625 145.738281 225.605469 145.738281 C 225.066406 145.738281 224.566406 145.875 224.101562 146.140625 C 223.636719 146.410156 223.273438 146.777344 223.003906 147.242188 L 217.015625 157.726562 C 216.816406 158.074219 216.691406 158.441406 216.640625 158.835938 C 216.585938 159.230469 216.613281 159.621094 216.714844 160.003906 C 216.820312 160.386719 216.992188 160.738281 217.234375 161.054688 C 217.476562 161.367188 217.769531 161.625 218.113281 161.824219 C 218.460938 162.023438 218.828125 162.148438 219.222656 162.199219 C 219.617188 162.25 220.007812 162.226562 220.390625 162.121094 C 220.773438 162.019531 221.125 161.847656 221.441406 161.605469 C 221.753906 161.363281 222.011719 161.066406 222.210938 160.722656 L 222.601562 160.035156 L 222.601562 205.667969 C 222.570312 206.089844 222.464844 206.492188 222.277344 206.871094 C 222.089844 207.25 221.839844 207.582031 221.523438 207.859375 C 221.207031 208.140625 220.847656 208.351562 220.449219 208.488281 C 220.050781 208.628906 219.636719 208.6875 219.214844 208.664062 Z M 219.214844 208.664062 " fill-opacity="1" fill-rule="nonzero"/></svg>